<?xml version="1.0" encoding="UTF-8"?>
<svg xmlns="http://www.w3.org/2000/svg" id="Layer_1" data-name="Layer 1" viewBox="0 0 24 24">
  <path d="M23.108,13.743c.578,.752,.892,1.665,.892,2.617,0,1.703-1.031,3.262-2.589,3.944-.936,2.146-2.699,3.48-4.867,3.672-.271,.025-.518-.178-.542-.454-.024-.275,.179-.518,.454-.542,1.846-.163,3.344-1.347,4.11-3.247,.053-.13,.156-.231,.287-.281,1.304-.493,2.146-1.707,2.146-3.092,0-.853-.329-1.666-.927-2.289-.192-.192-.182-.533,.022-.713,.644-.595,.943-1.504,.958-2.399,0-1.213-.63-2.156-1.926-2.884-.157-.088-.255-.255-.255-.436v-1.091c0-1.528-1.437-2.225-2.771-2.225-.276,0-.5-.224-.5-.5,0-1.52-1.169-2.812-2.553-2.824-1.169,.039-2.454,.659-2.55,2V7.5c0,.276-.224,.5-.5,.5s-.5-.224-.5-.5V3c0-1.179-1.289-2-2.446-2-1.382,0-2.549,1.293-2.549,2.824,0,.276-.224,.5-.5,.5-1.334,0-2.771,.696-2.771,2.225v1.091c0,.181-.098,.348-.255,.436-1.295,.729-1.925,1.671-1.925,2.884,.012,.861,.303,1.774,.957,2.397,.205,.18,.216,.523,.023,.715-.598,.624-.927,1.437-.927,2.289,0,1.385,.843,2.599,2.147,3.092,.131,.05,.235,.151,.287,.281,.451,1.12,1.57,3.03,4.003,3.247,.275,.024,.478,.268,.454,.542-.023,.277-.271,.479-.542,.454-2.133-.189-3.816-1.491-4.76-3.673-1.557-.683-2.589-2.24-2.589-3.943,0-.954,.315-1.869,.896-2.622C.368,12.889,.054,11.946,.054,10.959c0-1.498,.733-2.71,2.18-3.604v-.806c0-1.731,1.361-3.022,3.299-3.203,.227-1.856,1.747-3.346,3.521-3.346,1.133,0,2.306,.567,2.949,1.489,.665-.947,1.931-1.454,3.055-1.489,1.771,.015,3.288,1.503,3.516,3.346,1.938,.18,3.3,1.472,3.3,3.203v.806c1.447,.895,2.181,2.105,2.181,3.604,0,1.005-.326,1.964-.945,2.784Zm-5.608,1.757c0,1.964-1.069,3.788-2.792,4.763-.437,.246-.708,.75-.708,1.314v.723c0,.938-.763,1.7-1.7,1.7h-.6c-.969,0-1.7-.774-1.7-1.802v-.601c0-.575-.276-1.09-.721-1.343-2.074-1.179-3.125-3.465-2.678-5.823,.403-2.13,2.093-3.859,4.205-4.306,1.664-.351,3.359,.05,4.655,1.1,1.295,1.051,2.038,2.608,2.038,4.274Zm-4.5,6.077c0-.198,.031-.39,.073-.577h-2.148c.044,.194,.075,.392,.075,.598v.601c0,.465,.294,.802,.7,.802h.6c.386,0,.7-.314,.7-.7v-.723Zm3.5-6.077c.051-2.424-2.09-4.552-4.511-4.498-2.1-.037-4.028,1.539-4.405,3.615-.366,1.933,.493,3.805,2.19,4.769,.272,.155,.49,.377,.679,.624,.016-.002,.03-.009,.047-.009h1v-3.571c-.86-.224-1.5-1-1.5-1.929,0-.276,.224-.5,.5-.5s.5,.224,.5,.5c0,.552,.449,1,1,1s1-.448,1-1c0-.276,.224-.5,.5-.5s.5,.224,.5,.5c0,.929-.64,1.705-1.5,1.929v3.571h1c.014,0,.027,.007,.041,.008,.188-.245,.405-.464,.675-.617,1.409-.797,2.284-2.288,2.284-3.892Z"/>
</svg>
