<?xml version="1.0" encoding="UTF-8"?>
<svg xmlns="http://www.w3.org/2000/svg" id="Layer_1" data-name="Layer 1" viewBox="0 0 24 24">
  <path d="M6.5,13h2.293l1.969,1.969c.341,.341,.79,.512,1.238,.512s.897-.171,1.238-.512l1.969-1.969h2.293c2.481,0,4.5-2.019,4.5-4.5V4.5c0-2.481-2.019-4.5-4.5-4.5H6.5C4.019,0,2,2.019,2,4.5v4c0,2.481,2.019,4.5,4.5,4.5ZM3,4.5c0-1.93,1.57-3.5,3.5-3.5h11c1.93,0,3.5,1.57,3.5,3.5v4c0,1.93-1.57,3.5-3.5,3.5h-2.5c-.133,0-.26,.053-.354,.146l-2.115,2.115c-.293,.293-.77,.293-1.062,0l-2.115-2.115c-.094-.094-.221-.146-.354-.146h-2.5c-1.93,0-3.5-1.57-3.5-3.5V4.5Zm11-1c0-.276,.224-.5,.5-.5h3.062c.37,0,.702,.205,.867,.535s.13,.72-.091,1.016l-3.292,4.388,2.954,.062c.276,0,.5,.224,.5,.5s-.224,.5-.5,.5h-2.923c-.396,0-.752-.22-.929-.574-.177-.354-.139-.771,.098-1.087l3.291-4.388-3.037,.049c-.276,0-.5-.224-.5-.5Zm-2.5,3c0-.276,.224-.5,.5-.5h1c.276,0,.5,.224,.5,.5s-.224,.5-.5,.5h-1c-.276,0-.5-.224-.5-.5Zm2.572,16.5h9.428c.276,0,.5,.224,.5,.5s-.224,.5-.5,.5H.5c-.276,0-.5-.224-.5-.5s.224-.5,.5-.5H9.928c-.685-.663-1.664-1-2.928-1H.5c-.276,0-.5-.224-.5-.5s.224-.5,.5-.5H7c1.937,0,3.11,.699,3.819,1.484-.324-1.035-1.235-2.484-3.819-2.484H.5c-.276,0-.5-.224-.5-.5s.224-.5,.5-.5H7c3.944,0,4.775,2.831,4.951,4h.098c.176-1.169,1.007-4,4.951-4h6.5c.276,0,.5,.224,.5,.5s-.224,.5-.5,.5h-6.5c-2.584,0-3.495,1.448-3.819,2.484,.708-.785,1.882-1.484,3.819-1.484h6.5c.276,0,.5,.224,.5,.5s-.224,.5-.5,.5h-6.5c-1.263,0-2.242,.337-2.928,1ZM5.783,9.989c.034,.008,.068,.011,.102,.011,.232,0,.44-.162,.489-.398l.228-1.102h2.85l.21,1.094c.052,.272,.312,.448,.585,.397,.271-.052,.449-.314,.397-.585l-.935-4.876c-.147-.761-.762-1.53-1.653-1.53-.937,0-1.527,.877-1.646,1.492l-1.016,4.906c-.056,.271,.118,.535,.388,.591Zm1.609-5.301c.039-.203,.285-.688,.665-.688,.398,0,.628,.494,.671,.719l.533,2.781h-2.451l.582-2.812Z"/>
</svg>
